<mxfile host="app.diagrams.net" modified="2021-03-02T13:39:02.802Z" agent="5.0 (Windows)" etag="ufyvUfT95Vp2SiMZXfiE" version="14.4.3" type="github">
  <diagram id="YWGkQ3iFaj130DUT3Kt4" name="Page-1">
    <mxGraphModel dx="1182" dy="1930" grid="1" gridSize="10" guides="1" tooltips="1" connect="1" arrows="1" fold="1" page="1" pageScale="1" pageWidth="827" pageHeight="1169" math="0" shadow="0">
      <root>
        <mxCell id="0" />
        <mxCell id="1" parent="0" />
        <mxCell id="mxSbKOKthbxDmgVhHVLB-1" value="" style="outlineConnect=0;fontColor=#232F3E;gradientColor=none;fillColor=#277116;strokeColor=none;dashed=0;verticalLabelPosition=bottom;verticalAlign=top;align=center;html=1;fontSize=12;fontStyle=0;aspect=fixed;pointerEvents=1;shape=mxgraph.aws4.file_system;" vertex="1" parent="1">
          <mxGeometry x="70" y="400" width="78" height="73" as="geometry" />
        </mxCell>
        <mxCell id="mxSbKOKthbxDmgVhHVLB-2" value="" style="html=1;dashed=0;whitespace=wrap;fillColor=#2875E2;strokeColor=#ffffff;points=[[0.005,0.63,0],[0.1,0.2,0],[0.9,0.2,0],[0.5,0,0],[0.995,0.63,0],[0.72,0.99,0],[0.5,1,0],[0.28,0.99,0]];shape=mxgraph.kubernetes.icon;prIcon=api" vertex="1" parent="1">
          <mxGeometry x="64" y="560" width="90" height="90" as="geometry" />
        </mxCell>
        <mxCell id="mxSbKOKthbxDmgVhHVLB-3" value="" style="image;html=1;image=img/lib/clip_art/computers/Database_Move_Stack_128x128.png" vertex="1" parent="1">
          <mxGeometry x="19" y="160" width="80" height="80" as="geometry" />
        </mxCell>
        <mxCell id="mxSbKOKthbxDmgVhHVLB-5" value="" style="aspect=fixed;perimeter=ellipsePerimeter;html=1;align=center;shadow=0;dashed=0;spacingTop=3;image;image=img/lib/active_directory/database.svg;" vertex="1" parent="1">
          <mxGeometry x="34" y="250" width="50" height="37" as="geometry" />
        </mxCell>
        <mxCell id="mxSbKOKthbxDmgVhHVLB-6" value="HDFS" style="rounded=0;whiteSpace=wrap;html=1;" vertex="1" parent="1">
          <mxGeometry x="180" y="330" width="120" height="60" as="geometry" />
        </mxCell>
        <mxCell id="mxSbKOKthbxDmgVhHVLB-7" value="" style="html=1;aspect=fixed;strokeColor=none;shadow=0;align=center;verticalAlign=top;fillColor=#3B8DF1;shape=mxgraph.gcp2.view_list" vertex="1" parent="1">
          <mxGeometry x="730" y="140" width="81" height="100" as="geometry" />
        </mxCell>
        <mxCell id="mxSbKOKthbxDmgVhHVLB-8" value="ORM" style="whiteSpace=wrap;html=1;aspect=fixed;" vertex="1" parent="1">
          <mxGeometry x="500" y="260" width="80" height="80" as="geometry" />
        </mxCell>
        <mxCell id="mxSbKOKthbxDmgVhHVLB-9" value="&lt;div&gt;SQL&lt;/div&gt;&lt;div&gt;&lt;br&gt;&lt;/div&gt;" style="rounded=0;whiteSpace=wrap;html=1;" vertex="1" parent="1">
          <mxGeometry x="470" y="70" width="90" height="40" as="geometry" />
        </mxCell>
        <mxCell id="mxSbKOKthbxDmgVhHVLB-10" value="API" style="rounded=0;whiteSpace=wrap;html=1;" vertex="1" parent="1">
          <mxGeometry x="490" y="440" width="120" height="60" as="geometry" />
        </mxCell>
        <mxCell id="mxSbKOKthbxDmgVhHVLB-11" value="ODBC" style="text;html=1;strokeColor=none;fillColor=none;align=center;verticalAlign=middle;whiteSpace=wrap;rounded=0;" vertex="1" parent="1">
          <mxGeometry x="570" y="35" width="40" height="20" as="geometry" />
        </mxCell>
        <mxCell id="mxSbKOKthbxDmgVhHVLB-18" style="edgeStyle=orthogonalEdgeStyle;rounded=0;orthogonalLoop=1;jettySize=auto;html=1;exitX=0;exitY=0.5;exitDx=0;exitDy=0;" edge="1" parent="1" source="mxSbKOKthbxDmgVhHVLB-13" target="mxSbKOKthbxDmgVhHVLB-3">
          <mxGeometry relative="1" as="geometry" />
        </mxCell>
        <mxCell id="mxSbKOKthbxDmgVhHVLB-13" value="ODBC" style="text;html=1;strokeColor=none;fillColor=none;align=center;verticalAlign=middle;whiteSpace=wrap;rounded=0;" vertex="1" parent="1">
          <mxGeometry x="570" y="35" width="40" height="20" as="geometry" />
        </mxCell>
        <mxCell id="mxSbKOKthbxDmgVhHVLB-17" style="edgeStyle=orthogonalEdgeStyle;rounded=0;orthogonalLoop=1;jettySize=auto;html=1;exitX=0.25;exitY=1;exitDx=0;exitDy=0;entryX=0.5;entryY=0;entryDx=0;entryDy=0;" edge="1" parent="1" source="mxSbKOKthbxDmgVhHVLB-15" target="mxSbKOKthbxDmgVhHVLB-6">
          <mxGeometry relative="1" as="geometry">
            <Array as="points">
              <mxPoint x="580" y="160" />
              <mxPoint x="240" y="160" />
            </Array>
          </mxGeometry>
        </mxCell>
        <mxCell id="mxSbKOKthbxDmgVhHVLB-15" value="Hive" style="text;html=1;strokeColor=none;fillColor=none;align=center;verticalAlign=middle;whiteSpace=wrap;rounded=0;" vertex="1" parent="1">
          <mxGeometry x="610" y="170" width="40" height="20" as="geometry" />
        </mxCell>
        <mxCell id="mxSbKOKthbxDmgVhHVLB-21" value="" style="endArrow=classic;startArrow=classic;html=1;" edge="1" parent="1">
          <mxGeometry width="50" height="50" relative="1" as="geometry">
            <mxPoint x="150" y="440" as="sourcePoint" />
            <mxPoint x="200" y="390" as="targetPoint" />
          </mxGeometry>
        </mxCell>
        <mxCell id="mxSbKOKthbxDmgVhHVLB-22" value="Pig" style="text;html=1;strokeColor=none;fillColor=none;align=center;verticalAlign=middle;whiteSpace=wrap;rounded=0;" vertex="1" parent="1">
          <mxGeometry x="510" y="180" width="40" height="20" as="geometry" />
        </mxCell>
        <mxCell id="mxSbKOKthbxDmgVhHVLB-51" style="edgeStyle=orthogonalEdgeStyle;rounded=0;orthogonalLoop=1;jettySize=auto;html=1;exitX=0.5;exitY=1;exitDx=0;exitDy=0;" edge="1" parent="1" source="mxSbKOKthbxDmgVhHVLB-23">
          <mxGeometry relative="1" as="geometry">
            <mxPoint x="530" y="220" as="targetPoint" />
          </mxGeometry>
        </mxCell>
        <mxCell id="mxSbKOKthbxDmgVhHVLB-23" value="Pig" style="text;html=1;strokeColor=none;fillColor=none;align=center;verticalAlign=middle;whiteSpace=wrap;rounded=0;" vertex="1" parent="1">
          <mxGeometry x="510" y="180" width="40" height="20" as="geometry" />
        </mxCell>
        <mxCell id="mxSbKOKthbxDmgVhHVLB-24" value="Sqoop" style="text;html=1;strokeColor=none;fillColor=none;align=center;verticalAlign=middle;whiteSpace=wrap;rounded=0;" vertex="1" parent="1">
          <mxGeometry x="108" y="300" width="40" height="20" as="geometry" />
        </mxCell>
        <mxCell id="mxSbKOKthbxDmgVhHVLB-25" value="" style="endArrow=classic;startArrow=classic;html=1;" edge="1" parent="1">
          <mxGeometry width="50" height="50" relative="1" as="geometry">
            <mxPoint x="180" y="320" as="sourcePoint" />
            <mxPoint x="100" y="258.5" as="targetPoint" />
          </mxGeometry>
        </mxCell>
        <mxCell id="mxSbKOKthbxDmgVhHVLB-26" value="" style="endArrow=classic;startArrow=classic;html=1;" edge="1" parent="1">
          <mxGeometry width="50" height="50" relative="1" as="geometry">
            <mxPoint x="90" y="380" as="sourcePoint" />
            <mxPoint x="90" y="258.5" as="targetPoint" />
          </mxGeometry>
        </mxCell>
        <mxCell id="mxSbKOKthbxDmgVhHVLB-27" value="Oozie" style="text;html=1;strokeColor=none;fillColor=none;align=center;verticalAlign=middle;whiteSpace=wrap;rounded=0;" vertex="1" parent="1">
          <mxGeometry x="266" y="634.75" width="40" height="20" as="geometry" />
        </mxCell>
        <mxCell id="mxSbKOKthbxDmgVhHVLB-28" value="" style="verticalLabelPosition=bottom;aspect=fixed;html=1;verticalAlign=top;strokeColor=none;align=center;outlineConnect=0;shape=mxgraph.citrix.process;" vertex="1" parent="1">
          <mxGeometry x="260" y="663.25" width="52" height="62" as="geometry" />
        </mxCell>
        <mxCell id="mxSbKOKthbxDmgVhHVLB-29" value="Yarn" style="text;html=1;strokeColor=none;fillColor=none;align=center;verticalAlign=middle;whiteSpace=wrap;rounded=0;" vertex="1" parent="1">
          <mxGeometry x="530" y="760.5" width="40" height="20" as="geometry" />
        </mxCell>
        <mxCell id="mxSbKOKthbxDmgVhHVLB-30" value="" style="verticalLabelPosition=bottom;aspect=fixed;html=1;verticalAlign=top;strokeColor=none;align=center;outlineConnect=0;shape=mxgraph.citrix.process;" vertex="1" parent="1">
          <mxGeometry x="524" y="789" width="52" height="62" as="geometry" />
        </mxCell>
        <mxCell id="mxSbKOKthbxDmgVhHVLB-31" value="Tez" style="text;html=1;strokeColor=none;fillColor=none;align=center;verticalAlign=middle;whiteSpace=wrap;rounded=0;" vertex="1" parent="1">
          <mxGeometry x="386" y="698.5" width="40" height="20" as="geometry" />
        </mxCell>
        <mxCell id="mxSbKOKthbxDmgVhHVLB-32" value="" style="verticalLabelPosition=bottom;aspect=fixed;html=1;verticalAlign=top;strokeColor=none;align=center;outlineConnect=0;shape=mxgraph.citrix.process;" vertex="1" parent="1">
          <mxGeometry x="380" y="727" width="52" height="62" as="geometry" />
        </mxCell>
        <mxCell id="mxSbKOKthbxDmgVhHVLB-33" value="Spark" style="text;html=1;strokeColor=none;fillColor=none;align=center;verticalAlign=middle;whiteSpace=wrap;rounded=0;" vertex="1" parent="1">
          <mxGeometry x="560" y="380" width="40" height="20" as="geometry" />
        </mxCell>
        <mxCell id="mxSbKOKthbxDmgVhHVLB-35" value="Spark" style="text;html=1;strokeColor=none;fillColor=none;align=center;verticalAlign=middle;whiteSpace=wrap;rounded=0;" vertex="1" parent="1">
          <mxGeometry x="560" y="210" width="40" height="20" as="geometry" />
        </mxCell>
        <mxCell id="mxSbKOKthbxDmgVhHVLB-38" value="" style="html=1;outlineConnect=0;whiteSpace=wrap;fillColor=#99ffff;shape=mxgraph.archimate3.process;" vertex="1" parent="1">
          <mxGeometry x="650" y="250" width="90" height="25" as="geometry" />
        </mxCell>
        <mxCell id="mxSbKOKthbxDmgVhHVLB-39" value="" style="html=1;outlineConnect=0;whiteSpace=wrap;fillColor=#99ffff;shape=mxgraph.archimate3.process;rotation=-180;" vertex="1" parent="1">
          <mxGeometry x="640" y="287.5" width="90" height="25" as="geometry" />
        </mxCell>
        <mxCell id="mxSbKOKthbxDmgVhHVLB-40" value="" style="html=1;outlineConnect=0;whiteSpace=wrap;fillColor=#99ffff;shape=mxgraph.archimate3.process;rotation=90;" vertex="1" parent="1">
          <mxGeometry x="368" y="585" width="90" height="25" as="geometry" />
        </mxCell>
        <mxCell id="mxSbKOKthbxDmgVhHVLB-41" value="" style="html=1;outlineConnect=0;whiteSpace=wrap;fillColor=#99ffff;shape=mxgraph.archimate3.process;rotation=-90;" vertex="1" parent="1">
          <mxGeometry x="420" y="585" width="90" height="25" as="geometry" />
        </mxCell>
        <mxCell id="mxSbKOKthbxDmgVhHVLB-44" value="CPU MEM" style="ellipse;shape=cloud;whiteSpace=wrap;html=1;" vertex="1" parent="1">
          <mxGeometry x="480" y="645.25" width="120" height="80" as="geometry" />
        </mxCell>
        <mxCell id="mxSbKOKthbxDmgVhHVLB-45" value="driver 1 dialect 1" style="text;html=1;strokeColor=none;fillColor=none;align=center;verticalAlign=middle;whiteSpace=wrap;rounded=0;" vertex="1" parent="1">
          <mxGeometry x="89" y="140" width="71" height="20" as="geometry" />
        </mxCell>
        <mxCell id="mxSbKOKthbxDmgVhHVLB-46" value="driver 2 dialect 2" style="text;html=1;strokeColor=none;fillColor=none;align=center;verticalAlign=middle;whiteSpace=wrap;rounded=0;" vertex="1" parent="1">
          <mxGeometry x="84" y="210" width="71" height="20" as="geometry" />
        </mxCell>
        <mxCell id="mxSbKOKthbxDmgVhHVLB-49" style="edgeStyle=orthogonalEdgeStyle;rounded=0;orthogonalLoop=1;jettySize=auto;html=1;exitX=0;exitY=0.25;exitDx=0;exitDy=0;entryX=0.75;entryY=0;entryDx=0;entryDy=0;" edge="1" parent="1" source="mxSbKOKthbxDmgVhHVLB-48" target="mxSbKOKthbxDmgVhHVLB-45">
          <mxGeometry relative="1" as="geometry" />
        </mxCell>
        <mxCell id="mxSbKOKthbxDmgVhHVLB-50" style="edgeStyle=orthogonalEdgeStyle;rounded=0;orthogonalLoop=1;jettySize=auto;html=1;exitX=0;exitY=0.75;exitDx=0;exitDy=0;" edge="1" parent="1" source="mxSbKOKthbxDmgVhHVLB-48">
          <mxGeometry relative="1" as="geometry">
            <mxPoint x="160" y="200" as="targetPoint" />
          </mxGeometry>
        </mxCell>
        <mxCell id="mxSbKOKthbxDmgVhHVLB-48" value="&lt;div&gt;Drill = SQL universal&lt;/div&gt;&lt;div&gt;&lt;br&gt;&lt;/div&gt;" style="text;html=1;strokeColor=#d6b656;fillColor=#fff2cc;align=center;verticalAlign=middle;whiteSpace=wrap;rounded=0;" vertex="1" parent="1">
          <mxGeometry x="590" y="100" width="70" height="60" as="geometry" />
        </mxCell>
        <mxCell id="mxSbKOKthbxDmgVhHVLB-52" style="edgeStyle=orthogonalEdgeStyle;rounded=0;orthogonalLoop=1;jettySize=auto;html=1;exitX=0.5;exitY=1;exitDx=0;exitDy=0;entryX=1;entryY=1;entryDx=0;entryDy=0;" edge="1" parent="1" source="mxSbKOKthbxDmgVhHVLB-35" target="mxSbKOKthbxDmgVhHVLB-35">
          <mxGeometry relative="1" as="geometry" />
        </mxCell>
        <mxCell id="mxSbKOKthbxDmgVhHVLB-53" value="" style="dashed=0;outlineConnect=0;html=1;align=center;labelPosition=center;verticalLabelPosition=bottom;verticalAlign=top;shape=mxgraph.weblogos.buffer;fillColor=#221F1F;strokeColor=none" vertex="1" parent="1">
          <mxGeometry x="730" y="260" width="60" height="50.4" as="geometry" />
        </mxCell>
        <mxCell id="mxSbKOKthbxDmgVhHVLB-54" value="" style="dashed=0;outlineConnect=0;html=1;align=center;labelPosition=center;verticalLabelPosition=bottom;verticalAlign=top;shape=mxgraph.weblogos.buffer;fillColor=#221F1F;strokeColor=none" vertex="1" parent="1">
          <mxGeometry x="600" y="260" width="50" height="50.4" as="geometry" />
        </mxCell>
        <mxCell id="mxSbKOKthbxDmgVhHVLB-56" value="" style="endArrow=none;html=1;" edge="1" parent="1" source="mxSbKOKthbxDmgVhHVLB-55">
          <mxGeometry width="50" height="50" relative="1" as="geometry">
            <mxPoint x="400" y="500" as="sourcePoint" />
            <mxPoint x="400" y="-20" as="targetPoint" />
          </mxGeometry>
        </mxCell>
        <mxCell id="mxSbKOKthbxDmgVhHVLB-55" value="" style="dashed=0;outlineConnect=0;html=1;align=center;labelPosition=center;verticalLabelPosition=bottom;verticalAlign=top;shape=mxgraph.weblogos.buffer;fillColor=#221F1F;strokeColor=none" vertex="1" parent="1">
          <mxGeometry x="368" y="190" width="62" height="97" as="geometry" />
        </mxCell>
        <mxCell id="mxSbKOKthbxDmgVhHVLB-57" value="" style="endArrow=none;html=1;" edge="1" parent="1" target="mxSbKOKthbxDmgVhHVLB-55">
          <mxGeometry width="50" height="50" relative="1" as="geometry">
            <mxPoint x="400" y="500" as="sourcePoint" />
            <mxPoint x="400" y="-20" as="targetPoint" />
          </mxGeometry>
        </mxCell>
        <mxCell id="mxSbKOKthbxDmgVhHVLB-59" value="HBase" style="text;html=1;strokeColor=none;fillColor=none;align=center;verticalAlign=middle;whiteSpace=wrap;rounded=0;" vertex="1" parent="1">
          <mxGeometry x="328" y="275" width="40" height="20" as="geometry" />
        </mxCell>
        <mxCell id="mxSbKOKthbxDmgVhHVLB-60" value="&lt;div&gt;Mongo&lt;/div&gt;&lt;div&gt;&lt;br&gt;&lt;/div&gt;" style="text;html=1;strokeColor=none;fillColor=none;align=center;verticalAlign=middle;whiteSpace=wrap;rounded=0;" vertex="1" parent="1">
          <mxGeometry x="328" y="220" width="40" height="20" as="geometry" />
        </mxCell>
        <mxCell id="mxSbKOKthbxDmgVhHVLB-61" value="Cassandra" style="text;html=1;strokeColor=none;fillColor=none;align=center;verticalAlign=middle;whiteSpace=wrap;rounded=0;" vertex="1" parent="1">
          <mxGeometry x="430" y="230" width="40" height="20" as="geometry" />
        </mxCell>
        <mxCell id="mxSbKOKthbxDmgVhHVLB-62" value="&lt;div&gt;Stream&lt;/div&gt;&lt;div&gt;&lt;br&gt;&lt;/div&gt;" style="text;html=1;strokeColor=none;fillColor=none;align=center;verticalAlign=middle;whiteSpace=wrap;rounded=0;" vertex="1" parent="1">
          <mxGeometry x="154" y="550" width="40" height="20" as="geometry" />
        </mxCell>
        <mxCell id="mxSbKOKthbxDmgVhHVLB-63" style="edgeStyle=orthogonalEdgeStyle;rounded=0;orthogonalLoop=1;jettySize=auto;html=1;exitX=0.75;exitY=0;exitDx=0;exitDy=0;entryX=0.75;entryY=1;entryDx=0;entryDy=0;" edge="1" parent="1" source="mxSbKOKthbxDmgVhHVLB-62" target="mxSbKOKthbxDmgVhHVLB-62">
          <mxGeometry relative="1" as="geometry" />
        </mxCell>
        <mxCell id="mxSbKOKthbxDmgVhHVLB-66" style="edgeStyle=orthogonalEdgeStyle;rounded=0;orthogonalLoop=1;jettySize=auto;html=1;" edge="1" parent="1" source="mxSbKOKthbxDmgVhHVLB-64">
          <mxGeometry relative="1" as="geometry">
            <mxPoint x="360" y="310" as="targetPoint" />
          </mxGeometry>
        </mxCell>
        <mxCell id="mxSbKOKthbxDmgVhHVLB-64" value="&lt;div&gt;Storm Flume&lt;/div&gt;&lt;div&gt;&lt;br&gt;&lt;/div&gt;" style="text;html=1;strokeColor=none;fillColor=none;align=center;verticalAlign=middle;whiteSpace=wrap;rounded=0;" vertex="1" parent="1">
          <mxGeometry x="210" y="520" width="40" height="20" as="geometry" />
        </mxCell>
        <mxCell id="mxSbKOKthbxDmgVhHVLB-65" value="" style="endArrow=classic;html=1;" edge="1" parent="1" target="mxSbKOKthbxDmgVhHVLB-6">
          <mxGeometry width="50" height="50" relative="1" as="geometry">
            <mxPoint x="240" y="490" as="sourcePoint" />
            <mxPoint x="440" y="330" as="targetPoint" />
          </mxGeometry>
        </mxCell>
      </root>
    </mxGraphModel>
  </diagram>
</mxfile>
